<?xml version="1.0" encoding="UTF-8"?>
<svg width="78px" height="82px" viewBox="0 0 78 82" version="1.1" xmlns="http://www.w3.org/2000/svg" xmlns:xlink="http://www.w3.org/1999/xlink">
    <!-- Generator: Sketch 41.2 (35397) - http://www.bohemiancoding.com/sketch -->
    <title>bigwin-logo</title>
    <desc>Created with Sketch.</desc>
    <defs>
        <filter x="-50%" y="-50%" width="200%" height="200%" filterUnits="objectBoundingBox" id="filter-1">
            <feOffset dx="2" dy="2" in="SourceAlpha" result="shadowOffsetOuter1"></feOffset>
            <feGaussianBlur stdDeviation="1" in="shadowOffsetOuter1" result="shadowBlurOuter1"></feGaussianBlur>
            <feColorMatrix values="0 0 0 0 0   0 0 0 0 0   0 0 0 0 0  0 0 0 0.5 0" type="matrix" in="shadowBlurOuter1" result="shadowMatrixOuter1"></feColorMatrix>
            <feMerge>
                <feMergeNode in="shadowMatrixOuter1"></feMergeNode>
                <feMergeNode in="SourceGraphic"></feMergeNode>
            </feMerge>
        </filter>
        <polygon id="path-2" points="0.000100140421 77.0369099 73.8403802 77.0369099 73.8403802 0.0706677165 0.000100140421 0.0706677165"></polygon>
    </defs>
    <g id="BigWin-App-v3" stroke="none" stroke-width="1" fill="none" fill-rule="evenodd">
        <g id="Page-1-Copy-3" filter="url(#filter-1)">
            <g id="Group-3" transform="translate(0.000000, 0.232627)">
                <mask id="mask-3" fill="white">
                    <use xlink:href="#path-2"></use>
                </mask>
                <g id="Clip-2"></g>
                <path d="M11.8814645,31.7317761 C12.0129521,31.6332053 12.134043,31.5179532 12.2383157,31.3817738 L12.2410678,31.3781343 C12.1890843,31.5543486 12.1358777,31.7369322 12.0817537,31.9267948 C12.0205967,31.8570369 11.9536298,31.7921318 11.8814645,31.7317761 M36.414605,18.196937 L38.3982331,18.2621454 C38.4190264,18.2630553 38.439514,18.2633586 38.4603074,18.2633586 C38.4795719,18.2633586 38.4982248,18.2612355 38.5171835,18.2606289 C38.1490182,18.9030076 37.7673983,19.6011925 37.3738529,20.3624627 C36.9619603,19.5660103 36.5632165,18.8390124 36.1794562,18.1723701 C36.256514,18.1848052 36.3344893,18.1942074 36.414605,18.196937 M47.6185719,16.8084529 L47.6965471,16.7411214 C47.7167289,16.7235303 47.736605,16.7059392 47.7558694,16.6877415 C48.019762,16.4393429 48.3659107,16.3025569 48.7301008,16.3025569 C49.1294562,16.3025569 49.4850843,16.4539011 49.7593736,16.7411214 C50.0189851,17.0128736 50.1565884,17.3698518 50.1468033,17.7465441 C50.1367124,18.1226298 49.9804562,18.4714189 49.7070843,18.7289163 C49.689043,18.7452942 49.6716132,18.7622787 49.654795,18.7795666 L49.5755967,18.860243 C49.5743736,18.8614562 49.5731504,18.8626694 49.5719273,18.8638825 C49.4896711,18.9430425 47.9806215,20.3557903 43.8464066,22.3035502 C46.0526463,18.2673014 47.5693405,16.8533405 47.6185719,16.8084529 M30.9025223,22.3026404 C26.7469025,20.3433552 25.2354066,18.9212053 25.1678281,18.8563002 L25.095357,18.7822962 C25.0776215,18.7640985 25.0595802,18.7462041 25.0409273,18.7289163 C24.7672496,18.4714189 24.6109934,18.1223265 24.6009025,17.7462408 C24.5908116,17.3695485 24.7284149,17.0122671 24.9880264,16.7405148 C25.2623157,16.4539011 25.6182496,16.3025569 26.017605,16.3025569 C26.381795,16.3025569 26.727638,16.4393429 26.9915306,16.6877415 C27.0117124,16.7068491 27.0322,16.7250468 27.0532992,16.7432445 L27.1321917,16.8108792 C27.2095554,16.8821535 28.7158529,18.3006639 30.9025223,22.3026404 M73.6992909,22.4864371 C73.889795,22.0330112 73.8873488,21.5222625 73.6925636,21.0706564 L72.6602331,18.6767496 C72.4654479,18.2251434 72.0948364,17.8705917 71.632795,17.694074 C71.1707537,17.5178597 70.6564231,17.5339343 70.2063074,17.739265 L58.0898777,23.2719709 C57.1872,23.684452 56.7792826,24.734459 57.170076,25.6410075 L57.3104314,25.966443 C56.1411091,25.758686 54.3941587,25.468736 52.2643653,25.1781795 C53.4535636,24.3001407 54.0819521,23.7090189 54.3348364,23.4533413 C54.978514,22.8364394 55.5038529,22.129459 55.9022909,21.3609096 L56.2570017,21.7706611 C56.6190512,22.1892081 57.1324645,22.405154 57.6495471,22.405154 C58.053795,22.405154 58.4601835,22.273524 58.7983818,22.0032883 L65.0862413,16.9892166 C65.4733653,16.6804624 65.7176876,16.2291596 65.7632496,15.7384284 C65.8091174,15.2476972 65.6522496,14.7596957 65.3287289,14.385733 L64.1040595,12.9708622 C63.7802331,12.5968996 63.3172744,12.3691251 62.8212909,12.3397055 C62.3225554,12.3087694 61.8381917,12.4813442 61.4721669,12.8143621 L56.7664397,17.091427 C56.727605,16.5855311 56.6416793,16.0884307 56.5095802,15.6055852 C56.8511421,15.5064078 57.1670182,15.3104792 57.4088942,15.0196194 L61.7654149,9.77868319 C62.0901587,9.38834263 62.2360182,8.88153681 62.1687455,8.37958372 C62.1008612,7.87823722 61.8256545,7.42723767 61.4088694,7.13486136 L58.4149273,5.03636381 C57.9981421,4.7442908 57.4780017,4.6369244 56.9786545,4.74156114 C56.4793074,4.8455913 56.0463157,5.15131258 55.7836463,5.58502432 L52.6637207,10.7349721 C51.4708529,10.074699 50.1146959,9.71499126 48.7301008,9.71499126 C48.5726215,9.71499126 48.4160595,9.72105715 48.2598033,9.730156 C48.3090347,9.66767725 48.3545967,9.60125566 48.3961835,9.53119453 L50.2602496,6.37146805 C50.5207785,5.93017394 50.5819355,5.40062101 50.4287372,4.91201289 C50.2755388,4.42370807 49.922357,4.0218423 49.4554231,3.80468313 L47.2614149,2.78470232 C46.7947868,2.56754315 46.2569107,2.55541136 45.7808033,2.75103658 C45.3040843,2.9466618 44.9328612,3.33184635 44.7573405,3.8128721 L43.5008694,7.25526945 C43.1776545,8.13998073 43.588324,9.12326287 44.4472744,9.52239898 L45.9315554,10.2123949 C44.9457041,10.5745291 44.032324,11.1268291 43.2449273,11.8529172 C42.8941917,12.1598516 41.8416793,13.164971 40.365043,15.307143 L41.1551917,2.08833718 C41.1845471,1.59851588 41.0130017,1.11749014 40.6793901,0.75474941 C40.3460843,0.392008685 39.8791504,0.178185766 39.3846959,0.16180784 L36.6411917,0.0714259538 C36.1442909,0.0559579129 35.6663488,0.237934865 35.3094975,0.577928472 C34.9526463,0.917618783 34.7492992,1.38651273 34.7456298,1.87724391 L34.645638,15.6953605 C33.5695802,14.0888073 32.6965636,13.0606375 32.1241339,12.4582938 L32.6586463,12.3897492 C33.626762,12.2653982 34.3273157,11.4110165 34.2527041,10.4453254 L33.7554975,4.03154773 C33.7169686,3.53384077 33.4738694,3.07404567 33.0836876,2.75922554 C32.6932,2.44440541 32.1892661,2.3021601 31.6908364,2.36615532 L29.2873653,2.67430296 C28.788324,2.73829819 28.3379025,3.00277136 28.0409851,3.40585031 C27.7440678,3.80862597 27.6272579,4.31482519 27.7174645,4.80555637 L28.7036215,10.1717534 C27.8498694,9.87270461 26.9441339,9.71499126 26.017605,9.71499126 C25.1941256,9.71499126 24.3804314,9.84237512 23.6052661,10.0841012 C23.5835554,9.86633542 23.5230099,9.64917626 23.4178198,9.44293571 L21.5097207,5.70088298 C21.2788529,5.24806366 20.8675719,4.91110301 20.3749521,4.77219393 C19.8829438,4.63328486 19.3542413,4.70425587 18.9172744,4.96872904 L16.8483322,6.22042718 C16.4113653,6.48490035 16.1055802,6.91830879 16.0049769,7.41601576 C15.9043736,7.91402602 16.0178198,8.43084056 16.3181008,8.84180518 L18.7992413,12.2371918 C19.0114562,12.5277484 19.2958364,12.7364153 19.610795,12.859553 C18.6497124,14.1036688 18.0846215,15.5846579 17.9769851,17.1502662 L11.2909934,8.96524621 C10.9803157,8.58461109 10.5277537,8.34440151 10.0360512,8.29890727 C9.54404298,8.25401962 9.05509256,8.40627367 8.67867107,8.72291357 L6.83050579,10.2779066 C6.45377851,10.5948498 6.22199339,11.0488823 6.18713388,11.5374904 C6.15227438,12.0257953 6.31739835,12.5077309 6.6452,12.8738079 L16.5260347,23.9125298 C16.8880843,24.3171252 17.3920182,24.5242756 17.8990099,24.5242756 C18.3185471,24.5242756 18.7405306,24.3820303 19.0848446,24.0923837 L20.1541752,23.1931142 C20.2379603,23.2810698 20.323886,23.3681154 20.4122579,23.4527347 C20.6636132,23.7071991 21.2871091,24.2937715 22.4659107,25.1654411 C18.5457455,25.6977237 15.882357,26.2339491 15.7291587,26.2648852 L14.9264727,26.4280579 C14.3249934,26.550589 13.8250347,26.9633734 13.5944727,27.5281085 L13.2865471,28.2820997 C13.2669769,28.3306269 13.1883901,28.5265554 13.0682165,28.8538106 C12.9569107,28.5696233 12.7789438,28.3072732 12.5242248,28.1016392 L12.227919,27.8623395 C12.4890595,27.7759005 12.7361339,27.6366881 12.943762,27.4307509 L14.2201091,26.1647979 C14.9151587,25.4754085 14.9390099,24.3656524 14.2748446,23.64745 L8.81749752,17.7492737 C8.47899339,17.3835 8.00502645,17.1708903 7.50506777,17.160275 C7.00143967,17.1478399 6.52227438,17.3419486 6.16817521,17.6928609 L4.40226612,19.444389 C4.04847273,19.7953012 3.85460496,20.2742039 3.86530744,20.7703944 C3.87600992,21.2662816 4.09036529,21.7363887 4.45914215,22.0721362 L6.8506876,24.2488839 C6.36234876,24.3104527 5.91865455,24.563704 5.62051405,24.9531347 L4.80712562,26.0161834 C4.50623306,26.4089503 4.37933223,26.9057474 4.45486116,27.3934456 C4.53069587,27.8808405 4.80253884,28.3169786 5.20862149,28.6017726 L7.10540661,29.9332373 L3.12928264,28.5402037 C2.65959669,28.3755146 2.14281983,28.4073605 1.69698512,28.6284625 C1.25176198,28.8498678 0.916009917,29.2411183 0.767092562,29.7127419 L0.0836628099,31.8803907 C-0.0649487603,32.3520143 -0.0138826446,32.8633695 0.225241322,33.2967779 C0.464365289,33.7304897 0.871059504,34.0489493 1.35144793,34.1790629 L9.72415041,36.4461924 C9.88560496,36.4901702 10.0479769,36.5107942 10.2082083,36.5107942 C10.4886132,36.5107942 10.7601504,36.4443726 11.0056959,36.3260876 C10.2317537,40.0620744 9.55933223,44.9257118 9.55933223,50.5554721 C9.55933223,63.8061239 15.020043,73.0099116 15.253357,73.3972192 L15.5866628,73.9476995 C15.8419934,74.369886 16.2587785,74.6713611 16.741919,74.7835803 L17.3730595,74.9297684 C17.7445884,75.0156009 26.5888116,77.0370615 37.3175884,77.0370615 C48.0433074,77.0370615 56.8915058,75.0156009 57.2633405,74.9297684 L57.8938694,74.7835803 C58.3773157,74.6713611 58.7941008,74.369886 59.0494314,73.9473962 L59.3827372,73.3963093 C59.6154397,73.011428 65.076762,63.818559 65.076762,50.5554721 C65.076762,44.4704661 64.2924231,39.28109 63.4426463,35.4447126 C63.5404975,35.4368269 63.6386545,35.4237852 63.7368116,35.3995216 L72.1587455,33.3207382 C72.6424975,33.20124 73.055919,32.8921825 73.3051339,32.4642334 C73.554043,32.035981 73.6167289,31.5258389 73.4788198,31.050879 L72.8449273,28.8686721 C72.7067124,28.3937122 72.3801339,27.9948794 71.9398033,27.7637687 C71.4988612,27.5323547 70.9823901,27.4895901 70.5099521,27.6433606 L62.2638446,30.3266108 C62.2051339,30.3457184 62.1476463,30.3678589 62.0922992,30.3921225 C62.0693653,30.3205449 62.0467372,30.2498772 62.0247207,30.1816358 C62.1929025,30.177693 62.3632248,30.1534294 62.5317124,30.1012627 L66.4928529,28.8698853 C66.9720182,28.7206642 67.3686215,28.3834002 67.5903157,27.9363435 C67.8120099,27.4895901 67.8392248,26.9718657 67.6658446,26.5044882 L67.3233653,25.581865 L72.6810264,23.4782115 C73.1415388,23.2974477 73.5087868,22.9395597 73.6992909,22.4864371" id="Fill-1" fill="#FEFEFE" mask="url(#mask-3)"></path>
            </g>
            <polygon id="Fill-4" fill="#1D1C1B" points="2.51826281 30.4885399 1.83483306 32.6561887 10.2072298 34.9233183 10.7013785 33.3558901"></polygon>
            <polygon id="Fill-6" fill="#1D1C1B" points="71.7157545 31.7874611 71.081862 29.6049508 62.8357545 32.2885043 63.2938207 33.8662445"></polygon>
            <polygon id="Fill-8" fill="#1D1C1B" points="72.0057 22.0189383 70.9733694 19.6250315 58.8569397 25.1577374 59.6033612 26.8886415"></polygon>
            <polygon id="Fill-10" fill="#1D1C1B" points="7.46562149 19.2122774 5.6997124 20.9638056 11.6463157 26.37671 12.9229686 25.1104537"></polygon>
            <polygon id="Fill-12" fill="#E30F20" points="63.9364281 15.8036065 62.7117587 14.3887357 56.7633207 19.7952709 57.6488744 20.8179814"></polygon>
            <polygon id="Fill-14" fill="#E30F20" points="65.9440603 27.3658458 65.4373744 26.0007153 61.6165893 27.6103015 61.9829198 28.5972231"></polygon>
            <polygon id="Fill-16" fill="#E30F20" points="19.8726083 6.75495415 17.8036661 8.00665228 20.2848066 11.4020389 21.7807074 10.4970069"></polygon>
            <polygon id="Fill-18" fill="#1D1C1B" points="48.6767413 5.68514197 46.4824273 4.66485786 45.2259562 8.10725521 46.8123694 8.84486846"></polygon>
            <polygon id="Fill-20" fill="#E30F20" points="7.08189174 26.2862372 6.26819752 27.3489826 10.777305 30.5138651 11.3656355 29.7453157"></polygon>
            <polygon id="Fill-22" fill="#E30F20" points="9.8654843 10.3434183 8.01731901 11.8984114 17.8981537 22.9371333 19.2344347 21.8131224"></polygon>
            <polygon id="Fill-24" fill="#E30F20" points="31.9260463 4.4036906 29.5225752 4.71183824 30.685476 11.0403901 32.4232529 10.8174683"></polygon>
            <polygon id="Fill-26" fill="#E30F20" points="60.3500273 8.85372467 57.3560851 6.75492382 53.8291595 12.5769731 55.9935066 14.0943576"></polygon>
            <polygon id="Fill-28" fill="#1D1C1B" points="39.3237223 2.21323403 36.5802182 2.12285214 36.4756397 16.6106439 38.4592678 16.6761556"></polygon>
            <path d="M23.8576917,20.3627964 L23.7787992,20.2821199 C22.4770719,19.0583249 22.4226421,17.0122974 23.6567909,15.7208676 C24.2772289,15.0721198 25.115386,14.7151416 26.0177579,14.7151416 C26.8537744,14.7151416 27.6475926,15.0290519 28.254576,15.6001562 L28.3405017,15.6741602 C28.369857,15.6984238 31.1090802,18.0656406 34.7014438,26.1093252 C26.4128322,22.9762887 23.8757331,20.3816007 23.8576917,20.3627964 M46.4072041,15.6741602 L46.492824,15.6001562 C47.0998074,15.0290519 47.8942372,14.7151416 48.7302537,14.7151416 C49.632014,14.7151416 50.4704769,15.0721198 51.0906091,15.7214742 C52.3247579,17.0122974 52.2709397,19.0583249 50.9689066,20.2821199 L50.8897083,20.3627964 C50.8640223,20.3913061 48.3354851,22.9775019 40.0465678,26.1093252 C43.6401545,18.0662472 46.3873281,15.6917513 46.4072041,15.6741602 M59.6486174,29.1968675 L59.3409975,28.4434829 L58.5380058,28.2803103 C58.2441463,28.2205612 53.4050967,27.2494108 47.0441545,26.6319024 C51.1117083,24.2464878 52.7342041,22.7090859 53.041824,22.394569 C54.2310223,21.263279 54.9092537,19.7407385 54.9532868,18.1044624 C54.9973198,16.4566611 54.3912537,14.8898395 53.2473116,13.6933411 C52.0770719,12.4686362 50.4310306,11.7674183 48.7302537,11.7674183 C47.1432289,11.7674183 45.6335678,12.3591467 44.4761711,13.4349338 C44.0144355,13.8334633 41.0620802,16.59648 37.3740058,24.8203218 C33.6853198,16.59648 30.7332702,13.8334633 30.2718405,13.4349338 C29.1144438,12.3591467 27.6047826,11.7674183 26.0177579,11.7674183 C24.316981,11.7674183 22.6703281,12.4686362 21.5007,13.6933411 C20.3567579,14.8898395 19.750386,16.4566611 19.794419,18.1044624 C19.8387579,19.7407385 20.5163777,21.263279 21.7058818,22.394569 C22.0128901,22.7087826 23.6320223,24.242545 27.6876504,26.6225002 C21.2796174,27.2394021 16.3934769,28.2202579 16.0977826,28.2803103 L15.2950967,28.4434829 L14.9874769,29.1968675 C14.8410058,29.556272 11.3938901,38.1461908 11.3938901,50.7881296 C11.3938901,63.552903 16.6050802,72.3263152 16.8267744,72.693302 L17.1597744,73.2440856 L17.7906091,73.3902737 C18.153576,73.4745897 26.7999562,75.4496462 37.3177413,75.4496462 C47.8358322,75.4496462 56.4822124,73.4745897 56.8454851,73.3902737 L57.476014,73.2440856 L57.809014,72.693302 C58.031014,72.3263152 63.2422041,63.552903 63.2422041,50.7881296 C63.2422041,38.1461908 59.7950884,29.556272 59.6486174,29.1968675" id="Fill-30" fill="#1D1C1B"></path>
            <path d="M55.4926917,70.5778199 C53.296543,71.030336 45.8699397,72.416697 37.3177413,72.416697 C28.781138,72.416697 21.3419975,71.0300327 19.1430967,70.5775166 C18.0538901,68.5160211 14.4517413,60.9287953 14.4517413,50.7881296 C14.4517413,40.8473353 16.7359562,33.4108472 17.5435347,31.0933707 C20.2005017,30.6059757 28.802543,29.159259 37.3177413,29.159259 C45.8240719,29.159259 54.4337579,30.6059757 57.0925595,31.0933707 C57.9004438,33.4126669 60.1843529,40.8485485 60.1843529,50.7881296 C60.1843529,60.9306151 56.5806752,68.5193573 55.4926917,70.5778199" id="Fill-32" fill="#FEFEFE"></path>
            <path d="M53.0347909,41.1300668 L49.8295512,41.1300668 L49.5806421,38.5362887 L56.2599066,38.5362887 C56.2599066,38.5362887 56.9855347,41.0800232 57.1023446,43.8588112 C54.8110967,46.8144203 50.6857496,46.6900693 50.6857496,46.6900693 C49.5717744,46.6900693 48.5452537,46.5135517 47.605576,46.1599098 C46.6662041,45.8062679 45.8369149,45.3152335 45.1192372,44.6868064 C44.4018653,44.0571661 43.8227083,43.3077244 43.3839066,42.4363581 C42.9444934,41.5652951 42.6747909,40.6059732 42.5741876,39.5574827 C42.4650223,38.4186103 42.5717413,37.4001459 42.895262,36.5029995 C43.2178653,35.6055499 43.6887744,34.8485257 44.3070719,34.2331403 C44.9256752,33.6174517 45.6626174,33.1461314 46.5166752,32.8185728 C47.3707331,32.4910143 48.2807496,32.3269318 49.246419,32.3269318 C50.3337909,32.3269318 51.3199479,32.4676606 52.2055017,32.7497249 C53.0910554,33.0317892 54.0007661,33.4931007 54.9349397,34.1345695 L53.5745017,36.3155633 C52.9702702,35.8970163 52.3669562,35.5821962 51.7630306,35.3729227 C51.159105,35.1630426 50.454576,35.0581025 49.6497496,35.0581025 C49.0586669,35.0581025 48.5122289,35.1597063 48.0086008,35.3632172 C47.5049727,35.5658182 47.0698405,35.8578912 46.7035099,36.2370099 C46.3380967,36.617645 46.0635017,37.0856291 45.8824769,37.6421753 C45.7011463,38.1996313 45.644576,38.8371572 45.7139893,39.5574827 C45.776981,40.2132063 45.9424107,40.8122138 46.2090554,41.355415 C46.4757,41.8995261 46.8224603,42.3675101 47.2490306,42.7608836 C47.6765182,43.1536506 48.1718901,43.4611916 48.7366752,43.6844167 C49.3011545,43.9067318 49.9059975,44.0180411 50.5496752,44.0180411 C51.1407579,44.0180411 51.6627331,43.939791 52.1174355,43.7826842 C52.5715264,43.6246676 52.9672124,43.4160007 53.3044934,43.1536506 C53.3222289,42.0402549 53.0347909,41.1300668 53.0347909,41.1300668" id="Fill-34" fill="#E30F20"></path>
            <path d="M39.438086,50.7884026 C39.438086,49.6267831 38.4889289,48.6853556 37.3177719,48.6853556 C36.1472264,48.6853556 35.1980694,49.6267831 35.1980694,50.7884026 C35.1980694,51.9494156 36.1472264,52.890843 37.3177719,52.890843 C38.4889289,52.890843 39.438086,51.9494156 39.438086,50.7884026" id="Fill-36" fill="#1D1C1B"></path>
            <path d="M28.3918124,42.4280175 C28.3694901,42.894485 28.1000934,43.3579197 27.6622091,43.6078347 C27.2273826,43.8562332 26.6335479,43.9811907 25.8810107,43.9811907 L20.6970355,44.1649875 L20.8704157,44.1649875 C20.8704157,44.1649875 20.9019116,43.0133767 21.0924157,41.258209 L26.072738,41.0280081 C26.6956223,41.0280081 27.4845479,41.0201224 27.9802256,41.4538342 C28.2829529,41.7189139 28.4086306,42.0743756 28.3918124,42.4280175 M22.1739777,35.5781017 C22.1739777,35.5781017 25.6018289,35.3263669 26.299019,35.2757166 C26.8408702,35.2365916 27.4839364,35.3096857 27.8994983,35.688501 C28.3679612,36.1155403 28.3373826,36.8410217 28.0588124,37.3484341 C27.5973826,38.1885611 26.5344736,38.3690215 25.6568702,38.3690215 C25.6568702,38.3690215 21.8666636,38.5261283 21.8666636,38.525825 L21.4614983,38.525825 C21.6406884,37.5316243 21.8727793,36.5158896 22.1739777,35.5781017 M29.0345727,39.5670365 C29.6522587,39.3450246 30.1953331,38.9777344 30.6644074,38.4663792 C31.1334818,37.9559339 31.4359033,37.0120801 31.524581,36.1604279 C31.6404736,35.0473356 31.2976884,33.8532635 30.542705,33.2442473 C29.7874157,32.6352311 28.7031017,32.330723 27.2900686,32.330723 L20.0053496,32.9503545 C20.0053496,32.9503545 17.8036967,38.5261283 17.5076967,46.8176048 L19.5023331,46.8176048 L25.9608207,46.5261384 C26.7534157,46.5261384 27.4756802,46.4366664 28.127614,46.2607554 C28.7801595,46.0836311 29.3440273,45.8315931 29.8213579,45.5040345 C30.2977711,45.1770826 30.6796967,44.7737004 30.9671347,44.2957076 C31.2551843,43.8177148 31.4300934,43.2775465 31.4927793,42.6748995 C31.605614,41.5927432 31.2689446,40.4162623 30.1999198,39.9397859 C29.8250273,39.7729737 29.4250603,39.6877479 29.0345727,39.5670365" id="Fill-38" fill="#E30F20"></path>
            <path d="M35.3087942,46.4119479 C35.3087942,38.6206047 35.9154719,31.7355067 35.9154719,31.7355067 L38.7204388,31.7355067 C38.7204388,31.7355067 39.3271165,38.6206047 39.3271165,46.4119479 L35.3087942,46.4119479 Z" id="Fill-40" fill="#E30F20"></path>
            <path d="M35.3087942,55.1642507 C35.3087942,62.9562005 35.9154719,69.8364458 35.9154719,69.8364458 L38.7204388,69.8364458 C38.7204388,69.8364458 39.3271165,62.9562005 39.3271165,55.1642507 L35.3087942,55.1642507 Z" id="Fill-42" fill="#E30F20"></path>
            <path d="M41.6765248,49.2251296 C50.6754752,49.2251296 57.5629793,49.3970978 57.5629793,49.3970978 L57.5629793,52.1792221 C57.5629793,52.1792221 50.6754752,52.4370228 41.6765248,52.4370228 L41.6765248,49.2251296 Z" id="Fill-44" fill="#1D1C1B"></path>
            <path d="M32.9594165,49.2251296 C23.9604661,49.2251296 17.3631521,49.3970978 17.3631521,49.3970978 L17.3631521,52.1792221 C17.3631521,52.1792221 23.9604661,52.4370228 32.9594165,52.4370228 L32.9594165,49.2251296 Z" id="Fill-46" fill="#1D1C1B"></path>
            <path d="M21.1442769,68.7784622 C21.1442769,68.7784622 17.6806488,62.2612609 17.362938,54.748949 L20.5296488,54.8657175 C20.5296488,54.8657175 20.4434174,58.6796512 21.602343,62.1675428 C21.602343,62.1675428 22.4181777,58.6010978 23.7816736,54.9733872 L26.5893926,55.041022 C26.5893926,55.041022 27.1040289,57.6690725 28.1232107,62.3701438 C28.1232107,62.3701438 28.7341694,58.5483245 29.9725992,55.0989513 L32.9466653,55.1641598 C32.9466653,55.1641598 31.4951033,60.4593858 29.9661777,69.5864398 L27.7131529,69.4487439 C27.7131529,69.4487439 26.1356074,66.0600298 25.0145992,61.0204814 C25.0145992,61.0204814 24.0972438,64.0525207 23.1376901,69.0183684 L21.1442769,68.7784622 Z" id="Fill-48" fill="#E30F20"></path>
            <path d="M53.5394281,68.9416652 C53.5394281,68.9416652 57.0048909,62.0165322 57.4764116,54.7583815 L54.2387587,54.8930444 C54.2387587,54.8930444 53.9216595,59.2868779 52.3162876,63.6846543 C52.3162876,63.6846543 50.4204198,58.8064588 45.5835107,55.1256716 L42.9078909,55.1256716 C42.9078909,55.1256716 43.0720975,61.8873286 41.9299901,69.7635944 L44.9404446,69.679885 C44.9404446,69.679885 46.0278165,62.8314857 45.9865355,59.6605373 C45.9865355,59.6605373 48.9352215,62.9846496 51.2102628,69.2158438 L53.5394281,68.9416652 Z" id="Fill-50" fill="#E30F20"></path>
        </g>
    </g>
</svg>