<?xml version="1.0" encoding="UTF-8"?>
<svg width="24px" height="24px" viewBox="0 0 24 24" version="1.1" xmlns="http://www.w3.org/2000/svg" xmlns:xlink="http://www.w3.org/1999/xlink">
    <!-- Generator: Sketch 41.2 (35397) - http://www.bohemiancoding.com/sketch -->
    <title>icon-nickname</title>
    <desc>Created with Sketch.</desc>
    <defs></defs>
    <g id="BigWin-App-v3" stroke="none" stroke-width="1" fill="none" fill-rule="evenodd">
        <path d="M21.9635385,19.3365985 C21.8267372,19.0341159 21.6904427,18.9231549 21.500441,18.790407 C20.1070953,17.8186117 16.1844471,15.5922986 11.5767795,15.5644317 L11.5767795,15.562405 C11.5630994,15.562405 11.5489126,15.5644317 11.5352324,15.5644317 C11.5215523,15.5644317 11.5073655,15.562405 11.4936854,15.562405 L11.4936854,15.5644317 C6.88804446,15.5922986 2.96539626,17.8186117 1.57205054,18.790407 C1.38204885,18.9231549 1.24524764,19.0341159 1.10692641,19.3365985 C0.99596542,19.5843607 1.00001879,20.0890052 1.00001879,20.0890052 L1.00001879,24 L22.0704461,24 L22.0704461,20.0890052 C22.0704461,20.0890052 22.0765261,19.5843607 21.9635385,19.3365985 Z M11.4718985,12.7068063 C14.4800053,12.7068063 16.9186136,9.86032765 16.9186136,6.35314981 C16.9186136,2.84445195 14.4800053,0 11.4718985,0 C8.4637918,0 6.02518346,2.84445195 6.02518346,6.35314981 C6.02518346,9.86235433 8.4637918,12.7068063 11.4718985,12.7068063 Z" id="Page-1" fill="#333333"></path>
    </g>
</svg>