<?xml version="1.0" encoding="UTF-8"?>
<svg width="24px" height="24px" viewBox="0 0 24 24" version="1.1" xmlns="http://www.w3.org/2000/svg" xmlns:xlink="http://www.w3.org/1999/xlink">
    <!-- Generator: Sketch 41.2 (35397) - http://www.bohemiancoding.com/sketch -->
    <title>icon-feedback</title>
    <desc>Created with Sketch.</desc>
    <defs></defs>
    <g id="BigWin-App-v3" stroke="none" stroke-width="1" fill="none" fill-rule="evenodd">
        <path d="M4.47983086,18.4860278 L8.40277298,18.4860278 L11.6716409,23 L14.9405089,18.4860278 L18.863451,18.4860278 C20.2383293,18.4860278 21.3432819,17.3628056 21.3432819,15.9651944 L21.3432819,3.52083333 C21.3432819,2.12322222 20.2383293,1 18.863451,1 L4.47983086,1 C3.10495251,1 2,2.14583333 2,3.52083333 L2,15.9410556 C2,17.3628056 3.10495251,18.4860278 4.47983086,18.4860278 Z M7.50101631,8.5625 L10.4999584,8.5625 L10.4999584,5.51397222 L12.8222824,5.51397222 L12.8222824,8.5625 L15.8212246,8.5625 L15.8212246,10.9235278 L12.8210801,10.9235278 L12.8210801,13.97175 L10.5222018,13.97175 L10.5222018,10.9235278 L7.52325964,10.9235278 L7.52325964,8.5625 L7.50101631,8.5625 Z" id="Page-1-Copy-3" fill="#333333"></path>
    </g>
</svg>