<?xml version="1.0" encoding="UTF-8"?>
<svg width="16px" height="16px" viewBox="0 0 16 16" version="1.1" xmlns="http://www.w3.org/2000/svg" xmlns:xlink="http://www.w3.org/1999/xlink">
    <!-- Generator: Sketch 41.2 (35397) - http://www.bohemiancoding.com/sketch -->
    <title>icon-chevron</title>
    <desc>Created with Sketch.</desc>
    <defs></defs>
    <g id="BigWin-App-v3" stroke="none" stroke-width="1" fill="none" fill-rule="evenodd">
        <path d="M8.22741333,12.00576 L4.23317333,8.01173333 L8.23914667,4.00576 C10.4424533,1.80245333 12.25408,-1.13686838e-13 12.2666667,-1.13686838e-13 C12.27904,-1.13686838e-13 12.6741333,0.385066667 13.1441067,0.855893333 L14,1.71178667 L10.85568,4.85589333 C9.12661333,6.58496 7.71157333,8.01002667 7.71157333,8.02176 C7.71157333,8.03328 9.11914667,9.45088 10.83904,11.1707733 L13.9665067,14.2984533 L13.1165867,15.1492267 C12.6491733,15.61664 12.25664,16 12.2440533,16 C12.23168,16 10.4241067,14.2024533 8.22741333,12.00576 Z" id="Page-1" fill="#666666" transform="translate(9.116587, 8.000000) rotate(-180.000000) translate(-9.116587, -8.000000) "></path>
    </g>
</svg>