<?xml version="1.0" encoding="UTF-8"?>
<svg width="24px" height="24px" viewBox="0 0 24 24" version="1.1" xmlns="http://www.w3.org/2000/svg" xmlns:xlink="http://www.w3.org/1999/xlink">
    <!-- Generator: Sketch 41.2 (35397) - http://www.bohemiancoding.com/sketch -->
    <title>icon-about</title>
    <desc>Created with Sketch.</desc>
    <defs></defs>
    <g id="BigWin-App-v3" stroke="none" stroke-width="1" fill="none" fill-rule="evenodd">
        <path d="M11.4189284,22.9851181 C9.28193042,22.8739414 7.16546642,22.1121317 5.45352133,20.8378532 C4.99268073,20.4952295 4.66061735,20.2054074 4.22735092,19.7733143 C3.32092351,18.8668869 2.64506307,17.9170448 2.09827321,16.7850373 C0.633908931,13.7471854 0.633908931,10.2534798 2.09827321,7.21592128 C2.64506307,6.08362038 3.32092351,5.13377832 4.22735092,4.22735092 C5.13377832,3.32092351 6.08362038,2.64476973 7.21592128,2.09827321 C10.2534798,0.633908931 13.7471854,0.633908931 16.7850373,2.09827321 C17.9170448,2.64476973 18.8668869,3.32092351 19.7733143,4.22735092 C20.6797417,5.13377832 21.3558955,6.08362038 21.902392,7.21592128 C23.3667563,10.2534798 23.3667563,13.7471854 21.902392,16.7850373 C21.3558955,17.9170448 20.6797417,18.8668869 19.7733143,19.7733143 C19.0446523,20.5019763 18.3365242,21.0452461 17.4597244,21.548328 C15.6389493,22.5932129 13.5283521,23.0951214 11.4189284,22.9851181 Z M13.0437508,20.193967 C13.6462757,20.1124179 14.1481842,19.993321 14.6993742,19.8032352 C17.4963921,18.8372593 19.5580011,16.4515072 20.1135913,13.5374458 C20.2215412,12.9715886 20.2444219,12.7034739 20.2444219,11.9997459 C20.2444219,11.2974847 20.2215412,11.0293699 20.1135913,10.4620461 C19.476452,7.12410517 16.8753867,4.52303986 13.5374458,3.88590059 C12.9715886,3.778244 12.7034739,3.75536331 11.9997459,3.75536331 C11.2974847,3.75536331 11.0293699,3.778244 10.4620461,3.88590059 C7.12410517,4.52303986 4.52303986,7.12410517 3.88590059,10.4620461 C3.778244,11.0281966 3.75536331,11.2963113 3.75536331,11.9997459 C3.75536331,12.7023005 3.778244,12.9704153 3.88590059,13.5374458 C4.56205437,17.0816063 7.46672887,19.7894481 11.0314233,20.2007139 C11.4761301,20.2523421 11.4761301,20.2523421 12.1179628,20.2444219 C12.5714699,20.238555 12.7996901,20.2271147 13.0425775,20.193967 L13.0437508,20.193967 Z M10.624851,14.0645817 L10.624851,10.624851 L13.3772809,10.624851 L13.3772809,17.5046057 L10.624851,17.5046057 L10.624851,14.0645817 Z M11.7465916,9.21651511 C11.1874814,9.11560539 10.7451213,8.65505813 10.6512518,8.07746733 C10.6213309,7.89295509 10.6213309,7.85394057 10.6512518,7.66942833 C10.7495215,7.06690344 11.1942282,6.62219666 11.7970465,6.52363368 C11.9815587,6.49400612 12.0202799,6.49400612 12.2047921,6.52363368 C12.8076104,6.62219666 13.2523171,7.06690344 13.3508801,7.66942833 C13.3805077,7.85394057 13.3805077,7.89295509 13.3508801,8.07746733 C13.2555439,8.66063163 12.8134772,9.11677876 12.24498,9.21768848 C12.0411072,9.25435625 11.9516378,9.25435625 11.747765,9.21651511 L11.7465916,9.21651511 Z" id="Page-1-Copy-4" fill="#333333"></path>
    </g>
</svg>