<?xml version="1.0" encoding="UTF-8"?>
<svg width="24px" height="24px" viewBox="0 0 24 24" version="1.1" xmlns="http://www.w3.org/2000/svg" xmlns:xlink="http://www.w3.org/1999/xlink">
    <!-- Generator: Sketch 41.2 (35397) - http://www.bohemiancoding.com/sketch -->
    <title>icon-mobilenumber</title>
    <desc>Created with Sketch.</desc>
    <defs></defs>
    <g id="BigWin-App-v3" stroke="none" stroke-width="1" fill="none" fill-rule="evenodd">
        <path d="M18.1717775,0 L6.42616394,0 C5.63996587,0 5,0.639965868 5,1.42744387 L5,22.5738361 C5,23.3600341 5.63996587,24 6.42616394,24 L18.1704976,24 C18.9579756,24 19.5979414,23.3600341 19.5979414,22.5738361 L19.5979414,1.42744387 C19.5989014,0.639965868 18.9579756,0 18.1717775,0 Z M11.6582049,2.14484561 L12.9419764,2.14484561 C13.2232414,2.14484561 13.4520292,2.37363341 13.4520292,2.65489841 C13.4520292,2.93744334 13.2232414,3.1649512 12.9419764,3.1649512 L11.6582049,3.1649512 C11.3769399,3.1649512 11.1481521,2.9361634 11.1481521,2.65489841 C11.1481521,2.37235347 11.37566,2.14484561 11.6582049,2.14484561 Z M7.23732068,5.19716282 L17.3603008,5.19716282 L17.3603008,14.2216415 L7.23732068,14.2216415 L7.23732068,5.19716282 Z M8.78091835,22.1025012 L7.49586689,22.1025012 C7.21332196,22.1025012 6.98613407,21.8737134 6.98613407,21.5924484 C6.98613407,21.3102235 7.21460189,21.0827156 7.49586689,21.0827156 L8.78091835,21.0827156 C9.06346328,21.0827156 9.29097115,21.3102235 9.29097115,21.5924484 C9.29097115,21.8749933 9.06346328,22.1025012 8.78091835,22.1025012 Z M8.78091835,19.7490267 L7.49586689,19.7490267 C7.21332196,19.7490267 6.98613407,19.5202389 6.98613407,19.2389739 C6.98613407,18.956429 7.21460189,18.7289211 7.49586689,18.7289211 L8.78091835,18.7289211 C9.06346328,18.7289211 9.29097115,18.9577089 9.29097115,19.2389739 C9.29097115,19.5215189 9.06346328,19.7490267 8.78091835,19.7490267 Z M8.78091835,17.3952323 L7.49586689,17.3952323 C7.21332196,17.3952323 6.98613407,17.1664445 6.98613407,16.8854994 C6.98613407,16.6029545 7.21460189,16.3754466 7.49586689,16.3754466 L8.78091835,16.3754466 C9.06346328,16.3754466 9.29097115,16.6029545 9.29097115,16.8854994 C9.29097115,17.1677244 9.06346328,17.3952323 8.78091835,17.3952323 Z M12.9419764,22.1025012 L11.6582049,22.1025012 C11.3769399,22.1025012 11.1481521,21.8737134 11.1481521,21.5924484 C11.1481521,21.3102235 11.3769399,21.0827156 11.6582049,21.0827156 L12.9419764,21.0827156 C13.2232414,21.0827156 13.4520292,21.3102235 13.4520292,21.5924484 C13.4520292,21.8749933 13.2245214,22.1025012 12.9419764,22.1025012 Z M12.9419764,19.7490267 L11.6582049,19.7490267 C11.3769399,19.7490267 11.1481521,19.5202389 11.1481521,19.2389739 C11.1481521,18.956429 11.3769399,18.7289211 11.6582049,18.7289211 L12.9419764,18.7289211 C13.2232414,18.7289211 13.4520292,18.9577089 13.4520292,19.2389739 C13.4520292,19.5215189 13.2245214,19.7490267 12.9419764,19.7490267 Z M12.9419764,17.3952323 L11.6582049,17.3952323 C11.3769399,17.3952323 11.1481521,17.1664445 11.1481521,16.8854994 C11.1481521,16.6029545 11.3769399,16.3754466 11.6582049,16.3754466 L12.9419764,16.3754466 C13.2232414,16.3754466 13.4520292,16.6029545 13.4520292,16.8854994 C13.4520292,17.1677244 13.2245214,17.3952323 12.9419764,17.3952323 Z M17.1017546,22.1025012 L15.817983,22.1025012 C15.5354381,22.1025012 15.3079302,21.8737134 15.3079302,21.5924484 C15.3079302,21.3102235 15.536718,21.0827156 15.817983,21.0827156 L17.1017546,21.0827156 C17.3830196,21.0827156 17.6118074,21.3102235 17.6118074,21.5924484 C17.6118074,21.8749933 17.3842995,22.1025012 17.1017546,22.1025012 Z M17.1017546,19.7490267 L15.817983,19.7490267 C15.5354381,19.7490267 15.3079302,19.5202389 15.3079302,19.2389739 C15.3079302,18.956429 15.536718,18.7289211 15.817983,18.7289211 L17.1017546,18.7289211 C17.3830196,18.7289211 17.6118074,18.9577089 17.6118074,19.2389739 C17.6118074,19.5215189 17.3842995,19.7490267 17.1017546,19.7490267 Z M17.1017546,17.3952323 L15.817983,17.3952323 C15.5354381,17.3952323 15.3079302,17.1664445 15.3079302,16.8854994 C15.3079302,16.6029545 15.536718,16.3754466 15.817983,16.3754466 L17.1017546,16.3754466 C17.3830196,16.3754466 17.6118074,16.6029545 17.6118074,16.8854994 C17.6118074,17.1677244 17.3842995,17.3952323 17.1017546,17.3952323 Z" id="Page-1" fill="#333333"></path>
    </g>
</svg>