<?xml version="1.0" encoding="UTF-8"?>
<svg width="26px" height="26px" viewBox="0 0 26 26" version="1.1" xmlns="http://www.w3.org/2000/svg" xmlns:xlink="http://www.w3.org/1999/xlink">
    <!-- Generator: Sketch 41.2 (35397) - http://www.bohemiancoding.com/sketch -->
    <title>icon-back</title>
    <desc>Created with Sketch.</desc>
    <defs></defs>
    <g id="BigWin-App-v3" stroke="none" stroke-width="1" fill="none" fill-rule="evenodd">
        <path d="M3.93540323,3.37337756 C3.9988457,9.72481873 3.96091103,15.5831092 4.03743441,21.1653922 C5.49137878,21.1856676 6.59737065,21.1909 7.9872185,21.2085592 C7.96955925,17.3993951 7.95124597,13.4574595 7.93620291,10.1512568 L19.8849702,22.100024 C20.2505819,22.4656358 20.9150927,22.4682519 21.2774342,22.1052564 L22.667282,20.7154085 C23.0302776,20.353067 23.0302776,19.6885562 22.6620497,19.3229445 L10.7132824,7.37417724 C14.3949076,7.40753359 18.0765328,7.38660411 21.758158,7.43565757 C21.758158,6.09420912 21.7300341,4.64811331 21.7248017,3.47540874 C15.3707443,3.4165446 9.52291862,3.44990095 3.93540323,3.37337756 Z" id="Page-1" fill="#FFFFFF" transform="translate(13.437141, 12.874627) rotate(-45.000000) translate(-13.437141, -12.874627) "></path>
    </g>
</svg>