<?xml version="1.0" encoding="UTF-8"?>
<svg width="24px" height="24px" viewBox="0 0 24 24" version="1.1" xmlns="http://www.w3.org/2000/svg" xmlns:xlink="http://www.w3.org/1999/xlink">
    <!-- Generator: Sketch 41.2 (35397) - http://www.bohemiancoding.com/sketch -->
    <title>icon-name</title>
    <desc>Created with Sketch.</desc>
    <defs></defs>
    <g id="BigWin-App-v3" stroke="none" stroke-width="1" fill="none" fill-rule="evenodd">
        <path d="M0,2.77179311 L0,20.2122102 C0,20.5981067 0.308519687,20.9840033 0.771793113,20.9840033 L23.2285362,20.9840033 C23.6144327,20.9840033 24,20.6754836 24,20.2122102 L24,2.77179311 C24,2.38589656 23.6914803,2 23.2285362,2 L0.771793113,2 C0.308519687,2 0,2.30851969 0,2.77179311 Z M14.5853752,5.78125943 L19.4469475,5.78125943 C19.832844,5.78125943 20.2187406,6.09010838 20.2187406,6.55305254 L20.2187406,12.41789 C20.2187406,12.8037865 19.9102209,13.1896831 19.4469475,13.1896831 L14.5853752,13.1896831 C14.1994787,13.1896831 13.8135821,12.8811634 13.8135821,12.41789 L13.8135821,6.55305254 C13.8906297,6.16715599 14.1994787,5.78125943 14.5853752,5.78125943 Z M3.93568391,7.55631774 L9.56904925,7.55631774 C9.8778982,7.55631774 10.1864179,7.86483743 10.1864179,8.17368638 C10.1864179,8.48220606 9.8778982,8.79105501 9.56904925,8.79105501 L3.93568391,8.79105501 C3.62716422,8.79105501 3.31831527,8.48220606 3.31831527,8.17368638 C3.31831527,7.78778982 3.54978735,7.55631774 3.93568391,7.55631774 Z M3.93568391,11.5690493 L9.56904925,11.5690493 C9.8778982,11.5690493 10.1864179,11.8778982 10.1864179,12.1864179 C10.1864179,12.4952668 9.8778982,12.8037865 9.56904925,12.8037865 L3.93568391,12.8037865 C3.62716422,12.8037865 3.31831527,12.4952668 3.31831527,12.1864179 C3.31831527,11.8008506 3.54978735,11.5690493 3.93568391,11.5690493 Z M20.0643161,17.5886404 L3.93568391,17.5886404 C3.62716422,17.5886404 3.31831527,17.2797915 3.31831527,16.9712718 C3.31831527,16.6624228 3.62716422,16.3539031 3.93568391,16.3539031 L20.0643161,16.3539031 C20.373165,16.3539031 20.6816847,16.6624228 20.6816847,16.9712718 C20.6816847,17.2797915 20.373165,17.5886404 20.0643161,17.5886404 Z" id="Page-1" fill="#333333"></path>
    </g>
</svg>