<?xml version="1.0" encoding="UTF-8"?>
<svg width="24px" height="24px" viewBox="0 0 24 24" version="1.1" xmlns="http://www.w3.org/2000/svg" xmlns:xlink="http://www.w3.org/1999/xlink">
    <!-- Generator: Sketch 41.2 (35397) - http://www.bohemiancoding.com/sketch -->
    <title>icon-profile</title>
    <desc>Created with Sketch.</desc>
    <defs></defs>
    <g id="BigWin-App-v3" stroke="none" stroke-width="1" fill="none" fill-rule="evenodd">
        <path d="M0,3.77179311 L0,21.2122102 C0,21.5981067 0.308519687,21.9840033 0.771793113,21.9840033 L23.2285362,21.9840033 C23.6144327,21.9840033 24,21.6754836 24,21.2122102 L24,3.77179311 C24,3.38589656 23.6914803,3 23.2285362,3 L0.771793113,3 C0.308519687,3 0,3.30851969 0,3.77179311 Z M14.5853752,6.78125943 L19.4469475,6.78125943 C19.832844,6.78125943 20.2187406,7.09010838 20.2187406,7.55305254 L20.2187406,13.41789 C20.2187406,13.8037865 19.9102209,14.1896831 19.4469475,14.1896831 L14.5853752,14.1896831 C14.1994787,14.1896831 13.8135821,13.8811634 13.8135821,13.41789 L13.8135821,7.55305254 C13.8906297,7.16715599 14.1994787,6.78125943 14.5853752,6.78125943 Z M3.93568391,8.55631774 L9.56904925,8.55631774 C9.8778982,8.55631774 10.1864179,8.86483743 10.1864179,9.17368638 C10.1864179,9.48220606 9.8778982,9.79105501 9.56904925,9.79105501 L3.93568391,9.79105501 C3.62716422,9.79105501 3.31831527,9.48220606 3.31831527,9.17368638 C3.31831527,8.78778982 3.54978735,8.55631774 3.93568391,8.55631774 Z M3.93568391,12.5690493 L9.56904925,12.5690493 C9.8778982,12.5690493 10.1864179,12.8778982 10.1864179,13.1864179 C10.1864179,13.4952668 9.8778982,13.8037865 9.56904925,13.8037865 L3.93568391,13.8037865 C3.62716422,13.8037865 3.31831527,13.4952668 3.31831527,13.1864179 C3.31831527,12.8008506 3.54978735,12.5690493 3.93568391,12.5690493 Z M20.0643161,18.5886404 L3.93568391,18.5886404 C3.62716422,18.5886404 3.31831527,18.2797915 3.31831527,17.9712718 C3.31831527,17.6624228 3.62716422,17.3539031 3.93568391,17.3539031 L20.0643161,17.3539031 C20.373165,17.3539031 20.6816847,17.6624228 20.6816847,17.9712718 C20.6816847,18.2797915 20.373165,18.5886404 20.0643161,18.5886404 Z" id="Page-1-Copy" fill="#333333"></path>
    </g>
</svg>