<?xml version="1.0" encoding="UTF-8"?>
<svg width="24px" height="25px" viewBox="0 0 24 25" version="1.1" xmlns="http://www.w3.org/2000/svg" xmlns:xlink="http://www.w3.org/1999/xlink">
    <!-- Generator: Sketch 41.2 (35397) - http://www.bohemiancoding.com/sketch -->
    <title>icon-email</title>
    <desc>Created with Sketch.</desc>
    <defs></defs>
    <g id="BigWin-App-v3" stroke="none" stroke-width="1" fill="none" fill-rule="evenodd">
        <path d="M20.8530667,5 L12.0104,13.6223994 L3.172,5 L20.8530667,5 Z M20.9709333,20 L2.99066667,20 L8.98133333,12.8565361 C9.51146667,13.3776872 10.0250667,13.8814147 10.5386667,14.384362 C10.8093333,14.651439 11.0813333,14.9177358 11.3541333,15.1816921 C11.8010667,15.6154646 12.2,15.6175451 12.6416,15.185853 C13.3157333,14.5276526 13.9885333,13.8673717 14.6832,13.1878467 L20.9709333,20 Z M22,18.8692788 L15.8176,12.17181 L22,6.14476422 L22,18.8682386 L22,18.8692788 Z M2,18.8073856 L2,6.13462205 L7.84693333,11.8376387 L2,18.8073856 Z" id="Combined-Shape" fill="#333333"></path>
    </g>
</svg>