<?xml version="1.0" encoding="UTF-8"?>
<svg width="74px" height="80px" viewBox="0 0 74 80" version="1.1" xmlns="http://www.w3.org/2000/svg" xmlns:xlink="http://www.w3.org/1999/xlink">
    <!-- Generator: Sketch 41.2 (35397) - http://www.bohemiancoding.com/sketch -->
    <title>icon-locked</title>
    <desc>Created with Sketch.</desc>
    <defs>
        <path d="M53.3478632,35.8631624 L52.388547,35.8631624 L52.388547,30.3343162 C52.388547,21.8567521 45.530812,15 37.0532479,15 C28.5756838,15 21.7189316,21.8567521 21.7189316,30.3343162 L21.7189316,35.8631624 L20.7586325,35.8631624 C18.6925641,35.8631624 17,37.560641 17,39.6217949 L17,57.2413675 C17,59.3074359 18.6964957,61 20.7586325,61 L53.34,61 C55.4060684,61 57.0996154,59.3035043 57.0996154,57.2413675 L57.0996154,39.6217949 C57.1064957,37.560641 55.4139316,35.8631624 53.3478632,35.8631624 Z M24.6705983,30.3343162 C24.6705983,23.4775641 30.2731624,17.9487179 37.0571795,17.9487179 C43.837265,17.9487179 49.4437607,23.5502991 49.4437607,30.3343162 L49.4437607,35.8631624 L46.2719231,35.8631624 L46.2719231,30.3343162 C46.3446581,25.2467949 42.1447009,21.0468376 37.0571795,21.0468376 C31.9696581,21.0468376 27.7697009,25.1740598 27.7697009,30.3343162 L27.7697009,35.8631624 L24.5978632,35.8631624 L24.6705983,30.3343162 Z M43.3959402,35.8631624 L30.7184188,35.8631624 L30.7184188,30.3343162 C30.7184188,26.8715385 33.5206838,23.9955556 37.0571795,23.9955556 C40.5976068,23.9955556 43.3959402,26.7988034 43.3959402,30.3343162 L43.3959402,35.8631624 Z M54.1577778,57.2413675 C54.1577778,57.6826923 53.789188,58.0512821 53.3478632,58.0512821 L20.7664957,58.0512821 C20.3251709,58.0512821 19.9565812,57.6826923 19.9565812,57.2413675 L19.9565812,39.6217949 C19.9565812,39.1804701 20.3251709,38.8118803 20.7664957,38.8118803 L53.3478632,38.8118803 C53.789188,38.8118803 54.1577778,39.1804701 54.1577778,39.6217949 L54.1577778,57.2413675 Z M44.8702991,44.1225214 L29.2440598,44.1225214 C28.4341453,44.1225214 27.7697009,44.7859829 27.7697009,45.5968803 C27.7697009,46.4067949 28.4341453,47.0712393 29.2440598,47.0712393 L44.8702991,47.0712393 C45.6802137,47.0712393 46.3446581,46.4067949 46.3446581,45.5968803 C46.3446581,44.7859829 45.6802137,44.1225214 44.8702991,44.1225214 Z M44.8702991,49.7968376 L29.2440598,49.7968376 C28.4341453,49.7968376 27.7697009,50.4612821 27.7697009,51.2711966 C27.7697009,52.0811111 28.4341453,52.7455556 29.2440598,52.7455556 L44.8702991,52.7455556 C45.6802137,52.7455556 46.3446581,52.0811111 46.3446581,51.2711966 C46.3446581,50.4612821 45.6802137,49.7968376 44.8702991,49.7968376 Z" id="path-1"></path>
        <filter x="-50%" y="-50%" width="200%" height="200%" filterUnits="objectBoundingBox" id="filter-2">
            <feMorphology radius="3.5" operator="dilate" in="SourceAlpha" result="shadowSpreadOuter1"></feMorphology>
            <feOffset dx="0" dy="2" in="shadowSpreadOuter1" result="shadowOffsetOuter1"></feOffset>
            <feGaussianBlur stdDeviation="5" in="shadowOffsetOuter1" result="shadowBlurOuter1"></feGaussianBlur>
            <feColorMatrix values="0 0 0 0 0   0 0 0 0 0   0 0 0 0 0  0 0 0 0.5 0" type="matrix" in="shadowBlurOuter1"></feColorMatrix>
        </filter>
    </defs>
    <g id="BigWin-App-v3" stroke="none" stroke-width="1" fill="none" fill-rule="evenodd">
        <g id="Page-1">
            <use fill="black" fill-opacity="1" filter="url(#filter-2)" xlink:href="#path-1"></use>
            <use fill="#FFFFFF" fill-rule="evenodd" xlink:href="#path-1"></use>
        </g>
    </g>
</svg>