<?xml version="1.0" encoding="UTF-8"?>
<svg width="24px" height="24px" viewBox="0 0 24 24" version="1.1" xmlns="http://www.w3.org/2000/svg" xmlns:xlink="http://www.w3.org/1999/xlink">
    <!-- Generator: Sketch 41.2 (35397) - http://www.bohemiancoding.com/sketch -->
    <title>icon-games</title>
    <desc>Created with Sketch.</desc>
    <defs></defs>
    <g id="BigWin-App-v3" stroke="none" stroke-width="1" fill="none" fill-rule="evenodd">
        <path d="M4.63555556,4 C1.32133333,4 0,8.78488889 0,12.0728889 C0,15.3608889 2.02933333,20 5.34355556,20 C7.11822222,20 7.36977778,16.5902222 8.46888889,15.3751111 L15.5311111,15.3751111 C16.6302222,16.5902222 16.8817778,20 18.6564444,20 C21.9706667,20 24,15.3608889 24,12.0728889 C24,8.78488889 22.6786667,4 19.3644444,4 L4.63555556,4 Z M18.1457778,6.67688889 C18.6977778,6.67688889 19.1457778,7.12488889 19.1457778,7.67688889 C19.1457778,8.22933333 18.6977778,8.67688889 18.1457778,8.67688889 C17.5937778,8.67688889 17.1457778,8.22933333 17.1457778,7.67688889 C17.1457778,7.12488889 17.5937778,6.67688889 18.1457778,6.67688889 Z M4.84355556,7.01022222 L6.17688889,7.01022222 L6.17688889,9.01022222 L8.17688889,9.01022222 L8.17688889,10.3435556 L6.17688889,10.3435556 L6.17688889,12.3435556 L4.84355556,12.3435556 L4.84355556,10.3435556 L2.84355556,10.3435556 L2.84355556,9.01022222 L4.84355556,9.01022222 L4.84355556,7.01022222 Z M16.1457778,8.67688889 C16.6977778,8.67688889 17.1457778,9.12488889 17.1457778,9.67688889 C17.1457778,10.2293333 16.6977778,10.6768889 16.1457778,10.6768889 C15.5937778,10.6768889 15.1457778,10.2293333 15.1457778,9.67688889 C15.1457778,9.12488889 15.5937778,8.67688889 16.1457778,8.67688889 Z M20.1457778,8.67688889 C20.6977778,8.67688889 21.1457778,9.12488889 21.1457778,9.67688889 C21.1457778,10.2293333 20.6977778,10.6768889 20.1457778,10.6768889 C19.5937778,10.6768889 19.1457778,10.2293333 19.1457778,9.67688889 C19.1457778,9.12488889 19.5937778,8.67688889 20.1457778,8.67688889 Z M18.1457778,10.6768889 C18.6977778,10.6768889 19.1457778,11.1248889 19.1457778,11.6768889 C19.1457778,12.2293333 18.6977778,12.6768889 18.1457778,12.6768889 C17.5937778,12.6768889 17.1457778,12.2293333 17.1457778,11.6768889 C17.1457778,11.1248889 17.5937778,10.6768889 18.1457778,10.6768889 Z M10.4791111,12.6875556 L13.1457778,12.6875556 L13.1457778,14.0208889 L10.4791111,14.0208889 L10.4791111,12.6875556 Z" id="Page-1-Copy-5" fill="#333333"></path>
    </g>
</svg>