<?xml version="1.0" encoding="UTF-8"?>
<svg width="26px" height="29px" viewBox="0 0 26 29" version="1.1" xmlns="http://www.w3.org/2000/svg" xmlns:xlink="http://www.w3.org/1999/xlink">
    <!-- Generator: Sketch 41.2 (35397) - http://www.bohemiancoding.com/sketch -->
    <title>icon-menu</title>
    <desc>Created with Sketch.</desc>
    <defs></defs>
    <g id="BigWin-App-v3" stroke="none" stroke-width="1" fill="none" fill-rule="evenodd">
        <path d="M25.2962141,8.26994647 L25.2962141,8.26994647 C25.2962141,8.52813424 25.0872667,8.73675773 24.8294029,8.73675773 L1.46681126,8.73675773 C1.20894744,8.73675773 1,8.52813424 1,8.26994647 L1,5.46713521 C1,5.20894744 1.20894744,5 1.46681126,5 L24.8294029,5 C25.0872667,5 25.2962141,5.20894744 25.2962141,5.46713521 L25.2962141,8.26994647 Z M25.2962141,12.9419465 L25.2962141,12.9419465 C25.2962141,12.6837587 25.0872667,12.4748113 24.8294029,12.4748113 L1.46681126,12.4748113 C1.20894744,12.4748113 1,12.6837587 1,12.9419465 L1,15.7447577 C1,16.0029455 1.20894744,16.2118929 1.46681126,16.2118929 L24.8294029,16.2118929 C25.0872667,16.2118929 25.2962141,16.0029455 25.2962141,15.7447577 L25.2962141,12.9419465 Z M25.2962141,20.4180535 L25.2962141,20.4180535 C25.2962141,20.1598658 25.0872667,19.9512423 24.8294029,19.9512423 L1.46681126,19.9512423 C1.20894744,19.9512423 1,20.1598658 1,20.4180535 L1,23.2208648 C1,23.4790526 1.20894744,23.688 1.46681126,23.688 L24.8294029,23.688 C25.0872667,23.688 25.2962141,23.4790526 25.2962141,23.2208648 L25.2962141,20.4180535 Z" id="Page-1" fill="#FFFFFF"></path>
    </g>
</svg>