<?xml version="1.0" encoding="UTF-8"?>
<svg width="24px" height="24px" viewBox="0 0 24 24" version="1.1" xmlns="http://www.w3.org/2000/svg" xmlns:xlink="http://www.w3.org/1999/xlink">
    <!-- Generator: Sketch 41.2 (35397) - http://www.bohemiancoding.com/sketch -->
    <title>icon-unlock</title>
    <desc>Created with Sketch.</desc>
    <defs></defs>
    <g id="BigWin-App-v3" stroke="none" stroke-width="1" fill="none" fill-rule="evenodd">
        <path d="M21.4703686,10.074395 L12.6093594,10.074395 L12.6093594,5.76634891 C12.6093594,3.13825745 10.3794414,1 7.62962469,1 L6.01126592,1 C3.26144924,1 1,3.13825745 1,5.76634891 L1,11.3576428 L3.99473368,11.3576428 L3.99473368,5.76634891 C3.99473368,4.78814746 4.88127458,3.99473368 6.01126592,3.99473368 L7.63109126,3.99473368 C8.73101793,3.99473368 9.64762349,4.78961403 9.64762349,5.76634891 L9.64762349,10.074395 L8.66942204,10.074395 C8.02779815,10.074395 7.50789947,10.5942937 7.50789947,11.2359176 L7.50789947,21.8384774 C7.50789947,22.4801013 8.02779815,23 8.66942204,23 L21.5018999,23 C22.1435238,23 22.6634224,22.4801013 22.6634224,21.8384774 L22.6634224,11.2359176 C22.6318912,10.5942937 22.1119925,10.074395 21.4703686,10.074395 Z M16.9489367,19.3937071 L13.6792214,19.3937071 L14.5657623,16.7971469 C14.0458636,16.5221652 13.6792214,15.9722019 13.6792214,15.330578 C13.6792214,14.4139724 14.4125058,13.680688 15.3291114,13.680688 C16.245717,13.680688 16.9790014,14.4139724 16.9790014,15.330578 C16.9790014,15.9722019 16.6123592,16.5221652 16.0924605,16.7971469 L16.9489367,19.3937071 Z" id="Page-1-Copy-2" fill="#333333"></path>
    </g>
</svg>